<svg xmlns="http://www.w3.org/2000/svg" xmlns:svg="http://www.w3.org/2000/svg" id="svg3661" width="358.182" height="89.146" version="1.0"><defs id="defs3663"><linearGradient id="SVGID_46_" x1="52.391" x2="52.391" y1="89.895" y2="-.115" gradientUnits="userSpaceOnUse"><stop style="stop-color:#fff" id="stop662" offset="0"/><stop style="stop-color:#000" id="stop664" offset="1"/></linearGradient><linearGradient id="SVGID_45_" x1="52.545" x2="52.545" y1="89.148" y2=".158" gradientUnits="userSpaceOnUse"><stop style="stop-color:#fff" id="stop655" offset="0"/><stop style="stop-color:#000" id="stop657" offset="1"/></linearGradient><linearGradient id="SVGID_44_" x1="22.411" x2="22.411" y1="89.147" y2=".904" gradientUnits="userSpaceOnUse"><stop style="stop-color:#fff" id="stop648" offset="0"/><stop style="stop-color:#000" id="stop650" offset="1"/></linearGradient><linearGradient id="SVGID_43_" x1="82.41" x2="82.41" y1="89.147" y2="-1.393" gradientUnits="userSpaceOnUse"><stop style="stop-color:#fff" id="stop641" offset="0"/><stop style="stop-color:#000" id="stop643" offset="1"/></linearGradient><linearGradient id="SVGID_42_" x1="300.583" x2="300.583" y1="90.025" y2=".105" gradientUnits="userSpaceOnUse"><stop id="stop634" offset="0" style="stop-color:#fff"/><stop id="stop636" offset="1" style="stop-color:#000"/></linearGradient><linearGradient id="SVGID_41_" x1="327.606" x2="327.606" y1="89.118" y2="-3.241" gradientUnits="userSpaceOnUse"><stop id="stop627" offset="0" style="stop-color:#fff"/><stop id="stop629" offset="1" style="stop-color:#000"/></linearGradient><linearGradient id="SVGID_40_" x1="239.372" x2="239.372" y1="90.025" y2=".105" gradientUnits="userSpaceOnUse"><stop id="stop618" offset="0" style="stop-color:#fff"/><stop id="stop620" offset="1" style="stop-color:#000"/></linearGradient><linearGradient id="SVGID_39_" x1="266.396" x2="266.396" y1="89.118" y2="-3.241" gradientUnits="userSpaceOnUse"><stop id="stop611" offset="0" style="stop-color:#fff"/><stop id="stop613" offset="1" style="stop-color:#000"/></linearGradient><linearGradient id="SVGID_38_" x1="178.189" x2="178.189" y1="90.054" y2=".133" gradientUnits="userSpaceOnUse"><stop id="stop602" offset="0" style="stop-color:#fff"/><stop id="stop604" offset="1" style="stop-color:#000"/></linearGradient><linearGradient id="SVGID_37_" x1="205.214" x2="205.214" y1="89.147" y2="-3.213" gradientUnits="userSpaceOnUse"><stop id="stop595" offset="0" style="stop-color:#fff"/><stop id="stop597" offset="1" style="stop-color:#000"/></linearGradient><linearGradient id="SVGID_36_" x1=".391" x2=".391" y1="88.684" y2="1.2" gradientUnits="userSpaceOnUse"><stop style="stop-color:#fff" id="stop586" offset="0"/><stop style="stop-color:#000" id="stop588" offset="1"/></linearGradient><linearGradient id="SVGID_35_" x1="115.62" x2="115.62" y1="88.684" y2="1.2" gradientUnits="userSpaceOnUse"><stop style="stop-color:#fff" id="stop579" offset="0"/><stop style="stop-color:#000" id="stop581" offset="1"/></linearGradient><linearGradient id="SVGID_34_" x1="104.688" x2="104.688" y1="90.665" y2="-2.304" gradientUnits="userSpaceOnUse"><stop style="stop-color:#fff" id="stop572" offset="0"/><stop style="stop-color:#000" id="stop574" offset="1"/></linearGradient><linearGradient id="SVGID_33_" x1="138.073" x2="138.073" y1="90.665" y2="-2.304" gradientUnits="userSpaceOnUse"><stop style="stop-color:#fff" id="stop565" offset="0"/><stop style="stop-color:#000" id="stop567" offset="1"/></linearGradient><linearGradient id="SVGID_32_" x1="169.278" x2="169.278" y1="-12.06" y2="36.101" gradientUnits="userSpaceOnUse"><stop style="stop-color:#828486" id="stop554" offset="0"/><stop style="stop-color:#5a5b5d" id="stop556" offset=".379"/><stop style="stop-color:#d1d3d4" id="stop558" offset="1"/></linearGradient><linearGradient id="SVGID_31_" x1="52.543" x2="52.543" y1=".275" y2="93.906" gradientUnits="userSpaceOnUse"><stop id="stop545" offset=".478" style="stop-color:#1f1f20"/><stop id="stop547" offset=".863" style="stop-color:#58595b"/><stop id="stop549" offset="1" style="stop-color:#a5a8aa"/></linearGradient><linearGradient id="SVGID_30_" x1="126.864" x2="126.864" y1=".275" y2="93.906" gradientUnits="userSpaceOnUse"><stop id="stop536" offset=".478" style="stop-color:#1f1f20"/><stop id="stop538" offset=".863" style="stop-color:#58595b"/><stop id="stop540" offset="1" style="stop-color:#a5a8aa"/></linearGradient><linearGradient id="SVGID_29_" x1="314.114" x2="314.114" y1=".275" y2="93.906" gradientUnits="userSpaceOnUse"><stop id="stop527" offset=".478" style="stop-color:#1f1f20"/><stop id="stop529" offset=".863" style="stop-color:#58595b"/><stop id="stop531" offset="1" style="stop-color:#a5a8aa"/></linearGradient><linearGradient id="SVGID_28_" x1="252.911" x2="252.911" y1=".275" y2="93.906" gradientUnits="userSpaceOnUse"><stop id="stop518" offset=".478" style="stop-color:#1f1f20"/><stop id="stop520" offset=".863" style="stop-color:#58595b"/><stop id="stop522" offset="1" style="stop-color:#a5a8aa"/></linearGradient><linearGradient id="SVGID_27_" x1="191.702" x2="191.702" y1=".275" y2="93.906" gradientUnits="userSpaceOnUse"><stop id="stop509" offset=".478" style="stop-color:#1f1f20"/><stop id="stop511" offset=".863" style="stop-color:#58595b"/><stop id="stop513" offset="1" style="stop-color:#a5a8aa"/></linearGradient><linearGradient id="SVGID_26_" x1="283.837" x2="222.33" y1="-.119" y2="88.794" gradientUnits="userSpaceOnUse"><stop style="stop-color:#130e1e" id="stop488" offset="0"/><stop style="stop-color:#1c1426" id="stop490" offset=".023"/><stop style="stop-color:#442349" id="stop492" offset=".145"/><stop style="stop-color:#652966" id="stop494" offset=".255"/><stop style="stop-color:#7c287a" id="stop496" offset=".351"/><stop style="stop-color:#8b2688" id="stop498" offset=".429"/><stop style="stop-color:#91278f" id="stop500" offset=".478"/><stop style="stop-color:#ed1c24" id="stop502" offset="1"/></linearGradient><linearGradient id="SVGID_25_" x1="222.628" x2="161.118" y1="-.122" y2="88.795" gradientUnits="userSpaceOnUse"><stop style="stop-color:#381f1f" id="stop463" offset="0"/><stop style="stop-color:#3a1f20" id="stop465" offset=".002"/><stop style="stop-color:#5b2926" id="stop467" offset=".038"/><stop style="stop-color:#7c2f28" id="stop469" offset=".076"/><stop style="stop-color:#9b3029" id="stop471" offset=".117"/><stop style="stop-color:#b62e28" id="stop473" offset=".163"/><stop style="stop-color:#cc2927" id="stop475" offset=".213"/><stop style="stop-color:#dc2325" id="stop477" offset=".271"/><stop style="stop-color:#e81f25" id="stop479" offset=".344"/><stop style="stop-color:#ed1c24" id="stop481" offset=".478"/><stop style="stop-color:#f7931e" id="stop483" offset="1"/></linearGradient><linearGradient id="SVGID_24_" x1="345.041" x2="283.534" y1="-.118" y2="88.795" gradientUnits="userSpaceOnUse"><stop style="stop-color:#39b54a" id="stop456" offset=".478"/><stop style="stop-color:#1b75bc" id="stop458" offset="1"/></linearGradient></defs><metadata id="metadata3666"/><g id="layer1" transform="translate(-23.766146,-27.789184)"><g id="g3593" transform="translate(23.766146,27.789184)"><polygon id="polygon460" points="270.048 89.146 331.159 .028 358.171 .028 297.071 89.146 270.048 89.146" style="fill:url(#SVGID_24_)"/><polygon id="polygon485" points="147.63 89.146 208.737 .028 235.764 .028 174.664 89.146 147.63 89.146" style="fill:url(#SVGID_25_)"/><polygon id="polygon504" points="208.845 89.146 269.955 .028 296.968 .028 235.867 89.146 208.845 89.146" style="fill:url(#SVGID_26_)"/><g id="g506"><linearGradient id="linearGradient3766" x1="191.702" x2="191.702" y1=".275" y2="93.906" gradientUnits="userSpaceOnUse"><stop id="stop3768" offset=".478" style="stop-color:#1f1f20"/><stop id="stop3770" offset=".863" style="stop-color:#58595b"/><stop id="stop3772" offset="1" style="stop-color:#a5a8aa"/></linearGradient><polygon id="polygon515" points="235.764 89.146 174.664 .028 147.641 .028 208.737 89.146 235.764 89.146" style="fill:url(#SVGID_27_)"/><linearGradient id="linearGradient3775" x1="252.911" x2="252.911" y1=".275" y2="93.906" gradientUnits="userSpaceOnUse"><stop id="stop3777" offset=".478" style="stop-color:#1f1f20"/><stop id="stop3779" offset=".863" style="stop-color:#58595b"/><stop id="stop3781" offset="1" style="stop-color:#a5a8aa"/></linearGradient><polygon id="polygon524" points="296.978 89.146 235.867 .028 208.845 .028 269.955 89.146 296.978 89.146" style="fill:url(#SVGID_28_)"/><linearGradient id="linearGradient3784" x1="314.114" x2="314.114" y1=".275" y2="93.906" gradientUnits="userSpaceOnUse"><stop id="stop3786" offset=".478" style="stop-color:#1f1f20"/><stop id="stop3788" offset=".863" style="stop-color:#58595b"/><stop id="stop3790" offset="1" style="stop-color:#a5a8aa"/></linearGradient><polygon id="polygon533" points="358.182 89.146 297.071 .028 270.048 .028 331.159 89.146 358.182 89.146" style="fill:url(#SVGID_29_)"/><linearGradient id="linearGradient3793" x1="126.864" x2="126.864" y1=".275" y2="93.906" gradientUnits="userSpaceOnUse"><stop id="stop3795" offset=".478" style="stop-color:#1f1f20"/><stop id="stop3797" offset=".863" style="stop-color:#58595b"/><stop id="stop3799" offset="1" style="stop-color:#a5a8aa"/></linearGradient><rect id="rect542" width="23.115" height="89.118" x="115.307" y=".028" style="fill:url(#SVGID_30_)"/><linearGradient id="linearGradient3802" x1="52.543" x2="52.543" y1=".275" y2="93.906" gradientUnits="userSpaceOnUse"><stop id="stop3804" offset=".478" style="stop-color:#1f1f20"/><stop id="stop3806" offset=".863" style="stop-color:#58595b"/><stop id="stop3808" offset="1" style="stop-color:#a5a8aa"/></linearGradient><polygon id="polygon551" points="22.665 89.146 22.665 36.958 51.941 81.396 52.538 81.396 82.118 36.506 82.118 89.146 105.087 89.146 105.087 .028 80.171 .028 52.538 44.465 24.919 .028 0 .028 0 89.146 22.665 89.146" style="fill:url(#SVGID_31_)"/></g><path id="path560" d="M 147.641,0.028 L 176.057,41.475 C 185.405,41.621 194.607,41.909 203.659,42.318 L 174.665,0.028 L 147.641,0.028 L 147.641,0.028 z M 208.845,0.028 L 239.443,44.643 C 249.427,45.504 259.139,46.518 268.542,47.686 L 235.867,0.028 L 208.845,0.028 z M 297.071,0.028 L 270.048,0.028 L 306.755,53.545 C 318.05,55.642 328.688,57.979 338.557,60.518 L 297.071,0.028 z M 115.307,42.329 C 122.894,41.982 130.617,41.732 138.422,41.567 L 138.422,0.028 L 115.307,0.028 L 115.307,42.329 z M 52.538,44.465 L 24.919,0.028 L 0,0.028 L 0,56.438 C 7.241,54.877 14.806,53.434 22.665,52.094 L 22.665,36.958 L 31.667,50.623 C 45.791,48.427 60.765,46.576 76.439,45.126 L 82.119,36.506 L 82.119,44.618 C 89.631,43.973 97.293,43.424 105.088,42.968 L 105.088,0.028 L 80.171,0.028 L 52.538,44.465 z" style="fill:url(#SVGID_32_)"/><path id="path562" d="M 239.254,44.368 L 239.442,44.643 C 249.426,45.504 259.138,46.518 268.541,47.686 L 268.333,47.385 C 258.961,46.231 249.248,45.226 239.254,44.368 z M 0,56.438 C 7.241,54.877 14.806,53.434 22.665,52.094 L 22.665,50.924 C 14.803,52.192 7.216,53.556 0,55.027 L 0,56.438 z M 338.35,60.214 C 328.555,57.658 317.928,55.299 306.509,53.189 L 306.755,53.545 C 318.05,55.642 328.688,57.979 338.557,60.518 L 338.35,60.214 z M 175.839,41.155 L 176.057,41.475 C 185.405,41.621 194.607,41.909 203.659,42.318 L 203.459,42.028 C 194.413,41.612 185.197,41.321 175.839,41.155 z M 115.307,42.329 C 122.894,41.982 130.617,41.732 138.422,41.567 L 138.422,41.149 C 130.614,41.286 122.901,41.503 115.307,41.814 L 115.307,42.329 z M 31.667,50.623 C 45.791,48.427 60.765,46.576 76.439,45.126 L 76.95,44.349 C 60.825,45.728 45.448,47.501 31.013,49.63 L 31.667,50.623 z M 82.118,44.618 C 89.63,43.973 97.292,43.424 105.087,42.968 L 105.087,42.394 C 97.289,42.814 89.623,43.319 82.118,43.915 L 82.118,44.618 z" style="fill:#fff"/><polygon id="polygon569" points="138.421 89.146 138.421 .028 137.725 .028 138.421 89.146" style="fill:url(#SVGID_33_)"/><polygon id="polygon576" points="105.037 89.146 105.037 .028 104.34 .028 105.037 89.146" style="fill:url(#SVGID_34_)"/><polygon id="polygon583" points="115.932 89.146 115.307 .028 115.307 89.146 115.932 89.146" style="fill:url(#SVGID_35_)"/><polygon id="polygon590" points=".704 89.146 .079 .028 .079 89.146 .704 89.146" style="fill:url(#SVGID_36_)"/><g id="g592"><linearGradient id="linearGradient3818" x1="205.214" x2="205.214" y1="89.147" y2="-3.213" gradientUnits="userSpaceOnUse"><stop id="stop3820" offset="0" style="stop-color:#fff"/><stop id="stop3822" offset="1" style="stop-color:#000"/></linearGradient><polygon id="polygon599" points="235.764 89.146 174.664 .028 235.188 89.146 235.764 89.146" style="fill:url(#SVGID_37_)"/><linearGradient id="linearGradient3825" x1="178.189" x2="178.189" y1="90.054" y2=".133" gradientUnits="userSpaceOnUse"><stop id="stop3827" offset="0" style="stop-color:#fff"/><stop id="stop3829" offset="1" style="stop-color:#000"/></linearGradient><polygon id="polygon606" points="148.462 .028 147.641 .028 208.737 89.146 148.462 .028" style="fill:url(#SVGID_38_)"/></g><g id="g608"><linearGradient id="linearGradient3833" x1="266.396" x2="266.396" y1="89.118" y2="-3.241" gradientUnits="userSpaceOnUse"><stop id="stop3835" offset="0" style="stop-color:#fff"/><stop id="stop3837" offset="1" style="stop-color:#000"/></linearGradient><polygon id="polygon615" points="296.946 89.118 235.846 0 296.371 89.118 296.946 89.118" style="fill:url(#SVGID_39_)"/><linearGradient id="linearGradient3840" x1="239.372" x2="239.372" y1="90.025" y2=".105" gradientUnits="userSpaceOnUse"><stop id="stop3842" offset="0" style="stop-color:#fff"/><stop id="stop3844" offset="1" style="stop-color:#000"/></linearGradient><polygon id="polygon622" points="209.645 0 208.823 0 269.92 89.118 209.645 0" style="fill:url(#SVGID_40_)"/></g><g id="g624"><linearGradient id="linearGradient3848" x1="327.606" x2="327.606" y1="89.118" y2="-3.241" gradientUnits="userSpaceOnUse"><stop id="stop3850" offset="0" style="stop-color:#fff"/><stop id="stop3852" offset="1" style="stop-color:#000"/></linearGradient><polygon id="polygon631" points="358.157 89.118 297.057 0 357.582 89.118 358.157 89.118" style="fill:url(#SVGID_41_)"/><linearGradient id="linearGradient3855" x1="300.583" x2="300.583" y1="90.025" y2=".105" gradientUnits="userSpaceOnUse"><stop id="stop3857" offset="0" style="stop-color:#fff"/><stop id="stop3859" offset="1" style="stop-color:#000"/></linearGradient><polygon id="polygon638" points="270.855 0 270.034 0 331.131 89.118 270.855 0" style="fill:url(#SVGID_42_)"/></g><polygon id="polygon645" points="82.118 36.506 82.118 89.146 82.701 89.146 82.118 36.506" style="fill:url(#SVGID_43_)"/><polygon id="polygon652" points="22.66 89.146 22.66 36.958 22.163 36.23 22.66 89.146" style="fill:url(#SVGID_44_)"/><polygon id="polygon659" points="52.541 45.118 80.171 .028 52.538 44.465 24.919 .028 52.541 45.118" style="fill:url(#SVGID_45_)"/><polygon id="polygon666" points="22.665 36.958 51.941 81.396 52.538 81.396 82.118 36.506 52.268 81.076 22.665 36.958" style="fill:url(#SVGID_46_)"/></g></g></svg>